<svg width="36" height="36" viewBox="0 0 36 36" fill="none" xmlns="http://www.w3.org/2000/svg">
<path d="M15.1655 27.2241H9.48047C8.86547 27.2241 8.35547 26.7141 8.35547 26.0991V18.4191C8.35547 16.8591 9.63045 15.584 11.1905 15.584H15.1655C15.7805 15.584 16.2905 16.094 16.2905 16.709V26.084C16.2905 26.714 15.7805 27.2241 15.1655 27.2241ZM10.6055 24.9741H14.0404V17.8491H11.1905C10.8755 17.8491 10.6055 18.104 10.6055 18.434V24.9741Z" fill="#292D32"/>
<path d="M20.8344 27.2255H15.1494C14.5344 27.2255 14.0244 26.7155 14.0244 26.1005V11.6104C14.0244 10.0504 15.2994 8.77539 16.8594 8.77539H19.1394C20.6994 8.77539 21.9744 10.0504 21.9744 11.6104V26.1005C21.9594 26.7155 21.4644 27.2255 20.8344 27.2255ZM16.2894 24.9755H19.7244V11.6104C19.7244 11.2954 19.4694 11.0254 19.1394 11.0254H16.8594C16.5444 11.0254 16.2744 11.2804 16.2744 11.6104V24.9755H16.2894Z" fill="#292D32"/>
<path d="M26.5209 27.2236H20.8359C20.2209 27.2236 19.7109 26.7136 19.7109 26.0986V19.2734C19.7109 18.6584 20.2209 18.1484 20.8359 18.1484H24.8109C26.3709 18.1484 27.6459 19.4234 27.6459 20.9834V26.0986C27.6459 26.7136 27.1509 27.2236 26.5209 27.2236ZM21.9609 24.9736H25.3959V20.9834C25.3959 20.6684 25.1409 20.3984 24.8109 20.3984H21.9609V24.9736Z" fill="#292D32"/>
<path d="M22.5 34.125H13.5C5.355 34.125 1.875 30.645 1.875 22.5V13.5C1.875 5.355 5.355 1.875 13.5 1.875H22.5C30.645 1.875 34.125 5.355 34.125 13.5V22.5C34.125 30.645 30.645 34.125 22.5 34.125ZM13.5 4.125C6.585 4.125 4.125 6.585 4.125 13.5V22.5C4.125 29.415 6.585 31.875 13.5 31.875H22.5C29.415 31.875 31.875 29.415 31.875 22.5V13.5C31.875 6.585 29.415 4.125 22.5 4.125H13.5Z" fill="#292D32"/>
</svg>
