<svg width="36" height="36" viewBox="0 0 36 36" fill="none" xmlns="http://www.w3.org/2000/svg">
<g clip-path="url(#clip0_2706_121055)">
<path d="M18 36C27.9411 36 36 27.9411 36 18C36 8.05888 27.9411 0 18 0C8.05888 0 0 8.05888 0 18C0 27.9411 8.05888 36 18 36Z" fill="#007AB9"/>
<path d="M28.7547 19.4486V26.8696H24.4521V19.946C24.4521 18.2075 23.8309 17.0203 22.2731 17.0203C21.0843 17.0203 20.3781 17.8196 20.0662 18.5935C19.9529 18.8701 19.9238 19.2542 19.9238 19.6421V26.8693H15.6209C15.6209 26.8693 15.6787 15.1429 15.6209 13.9291H19.9241V15.7628C19.9154 15.7773 19.9032 15.7914 19.8955 15.8052H19.9241V15.7628C20.4959 14.883 21.5156 13.6252 23.8018 13.6252C26.6324 13.6252 28.7547 15.4747 28.7547 19.4486ZM11.1198 7.69141C9.64798 7.69141 8.68506 8.65754 8.68506 9.92689C8.68506 11.1693 9.62006 12.1633 11.0633 12.1633H11.0912C12.5919 12.1633 13.525 11.1693 13.525 9.92689C13.4965 8.65754 12.5919 7.69141 11.1198 7.69141ZM8.94079 26.8696H13.242V13.9291H8.94079V26.8696Z" fill="#F1F2F2"/>
</g>
<defs>
<clipPath id="clip0_2706_121055">
<rect width="36" height="36" fill="white"/>
</clipPath>
</defs>
</svg>
