<svg width="32" height="32" viewBox="0 0 32 32" fill="none" xmlns="http://www.w3.org/2000/svg">
<rect x="8" y="10" width="16" height="11" fill="white"/>
<path d="M28.7477 14.3188L26.9344 12.2121C26.5877 11.8121 26.3077 11.0654 26.3077 10.5321V8.26544C26.3077 6.85211 25.1477 5.69211 23.7344 5.69211H21.4677C20.9477 5.69211 20.1877 5.41211 19.7877 5.06544L17.681 3.25211C16.761 2.46544 15.2544 2.46544 14.321 3.25211L12.2276 5.07878C11.8277 5.41211 11.0676 5.69211 10.5476 5.69211H8.24098C6.82765 5.69211 5.66765 6.85211 5.66765 8.26544V10.5454C5.66765 11.0654 5.38765 11.8121 5.05432 12.2121L3.25432 14.3321C2.48098 15.2521 2.48098 16.7455 3.25432 17.6655L5.05432 19.7855C5.38765 20.1855 5.66765 20.9321 5.66765 21.4521V23.7321C5.66765 25.1455 6.82765 26.3055 8.24098 26.3055H10.5476C11.0676 26.3055 11.8277 26.5855 12.2276 26.9321L14.3344 28.7455C15.2544 29.5321 16.761 29.5321 17.6944 28.7455L19.801 26.9321C20.201 26.5855 20.9477 26.3055 21.481 26.3055H23.7477C25.161 26.3055 26.321 25.1455 26.321 23.7321V21.4655C26.321 20.9455 26.601 20.1855 26.9477 19.7855L28.761 17.6788C29.5344 16.7588 29.5344 15.2388 28.7477 14.3188ZM21.5477 13.4788L15.1077 19.9188C14.921 20.1055 14.6677 20.2121 14.401 20.2121C14.1344 20.2121 13.881 20.1055 13.6944 19.9188L10.4676 16.6921C10.081 16.3055 10.081 15.6655 10.4676 15.2788C10.8543 14.8921 11.4943 14.8921 11.881 15.2788L14.401 17.7988L20.1344 12.0654C20.521 11.6788 21.161 11.6788 21.5477 12.0654C21.9344 12.4521 21.9344 13.0921 21.5477 13.4788Z" fill="#1E93FF"/>
</svg>
